<svg xmlns="http://www.w3.org/2000/svg" viewBox="0 0 768 768"><title>charging station</title><g id="nabenstaanbhjdsa"><path d="M253.55,142.54H368.78a88.55,88.55,0,0,1,88.55,88.55V623.75a0,0,0,0,1,0,0H165a0,0,0,0,1,0,0V231.08A88.55,88.55,0,0,1,253.55,142.54Z" style="fill:none;stroke:#094e4b;stroke-miterlimit:10;stroke-width:8px"/><path d="M156.93,623.75H462.59A17.22,17.22,0,0,1,479.81,641v13a6,6,0,0,1-6,6H145.69a6,6,0,0,1-6-6V641A17.22,17.22,0,0,1,156.93,623.75Z" style="fill:none;stroke:#094e4b;stroke-miterlimit:10;stroke-width:8px"/><rect x="208.45" y="193.19" width="202.62" height="108.54" rx="22.54" style="fill:none;stroke:#094e4b;stroke-linecap:round;stroke-linejoin:round;stroke-width:8px"/><path d="M483.53,368.81V215.32A91.33,91.33,0,0,0,392.21,124" style="fill:none;stroke:#357674;stroke-linecap:round;stroke-miterlimit:10;stroke-width:8px"/></g><g id="apis"><path d="M594.35,381.37V573.3a48,48,0,0,1-96,0V480.76a20.57,20.57,0,0,0-41.13,0v26.31" style="fill:none;stroke:#094e4b;stroke-linecap:round;stroke-linejoin:round;stroke-width:8px"/><path d="M585.14,299.12h50.91a0,0,0,0,1,0,0v82.26a0,0,0,0,1,0,0H585.14A31.34,31.34,0,0,1,553.8,350V330.46A31.34,31.34,0,0,1,585.14,299.12Z" transform="translate(254.68 935.17) rotate(-90)" style="fill:none;stroke:#094e4b;stroke-miterlimit:10;stroke-width:8px"/><rect x="574.36" y="251.13" width="41.13" height="54.84" transform="translate(316.38 873.48) rotate(-90)" style="fill:none;stroke:#094e4b;stroke-miterlimit:10;stroke-width:8px"/><line x1="594.93" y1="271.7" x2="594.93" y2="257.99" style="fill:none;stroke:#094e4b;stroke-miterlimit:10;stroke-width:8px"/><path d="M656.62,319.68v55.4a26.86,26.86,0,0,1-26.85,26.86H615.49V587" style="fill:none;stroke:#357674;stroke-linecap:round;stroke-miterlimit:10;stroke-width:8px"/><polygon points="344.87 362.24 308.77 445.6 354.24 445.6 308.77 563.25 308.4 469.27 255.82 468.75 302.17 362.24 344.87 362.24" style="fill:none;stroke:#094e4b;stroke-linecap:round;stroke-linejoin:round;stroke-width:8px"/></g></svg>