<?xml version="1.0" encoding="utf-8"?>
<!-- Generator: Adobe Illustrator 19.2.1, SVG Export Plug-In . SVG Version: 6.00 Build 0)  -->
<svg version="1.1" id="Layer_1" xmlns="http://www.w3.org/2000/svg" xmlns:xlink="http://www.w3.org/1999/xlink" x="0px" y="0px"
	 width="512px" height="512px" viewBox="-49 141 512 512" style="enable-background:new -49 141 512 512;" xml:space="preserve">
<style type="text/css">
	.st0{display:none;fill:#005B9C;}
	.st1{fill:#005B9C;}
</style>
<path class="st0" d="M95.1,470.8C9.9,486.3-49,519-49,557c0,53,114.6,96,256,96s256-43,256-96c0-38-58.9-70.7-144.1-86.2L307,486.4
	l-12,15.9c66.5,9.3,120,33.1,120,54.6c0,30.9-93.1,56-208,56S-1,587.9-1,557c0-21.6,53.5-44.3,120-53.6"/>
<path class="st0" d="M189.4,551.5c-118-171-139.9-188.6-139.9-251.4c0-86.1,69.8-155.9,155.9-155.9S361.2,214,361.2,300.1
	c0,62.8-21.9,80.4-139.9,251.4C213.7,562.7,197.1,562.7,189.4,551.5L189.4,551.5z M205.4,365c35.9,0,64.9-29.1,64.9-64.9
	s-29.1-64.9-64.9-64.9s-64.9,29.1-64.9,64.9S169.5,365,205.4,365z"/>
<g>
	<path class="st1" d="M458,298.5v45.2c0,33.7-20.7,61.9-49,71.5v98c0,39.5-29.8,71.6-66.5,71.6S276,552.7,276,513.2v-26.4
		c0-20.8-15.7-37.7-35-37.7h-7v150.7h21c3.9,0,7,3.4,7,7.5v30.1c0,4.2-3.1,7.5-7,7.5H-39c-3.9,0-7-3.4-7-7.5v-30.1
		c0-4.2,3.1-7.5,7-7.5h21V208c0-25,18.8-45.2,42-45.2h168c23.2,0,42,20.2,42,45.2v195.9h7c42.5,0,77,37.2,77,82.9v26.4
		c0,14.5,11,26.4,24.5,26.4s24.5-11.8,24.5-26.4v-98c-28.3-9.6-49-37.8-49-71.5v-45.2c0-8.3,6.3-15.1,14-15.1h14v-45.2
		c0-8.3,6.3-15.1,14-15.1s14,6.7,14,15.1v45.2h28v-45.2c0-8.3,6.3-15.1,14-15.1s14,6.7,14,15.1v45.2h14
		C451.7,283.4,458,290.1,458,298.5z M192,208H24v391.8h168V208z M52.1,365.8l16.7-76.3c0.5-3.5,3.7-6.1,7.4-6.1h42.5
		c4.9,0,8.5,4.4,7.2,8.9l-7.2,34.2h36.1c5.8,0,9.4,5.9,6.5,10.6l-58.6,93.5c-1.4,2.2-3.9,3.5-6.5,3.5c-4.8,0-8.4-4.2-7.3-8.7
		l7.7-51.6H59.5C55,373.8,51.5,370,52.1,365.8z M416,328.6h-56v15.1c0,16.6,12.6,30.1,28,30.1s28-13.5,28-30.1V328.6z"/>
</g>
</svg>
