<?xml version="1.0" standalone="no"?>
<!DOCTYPE svg PUBLIC "-//W3C//DTD SVG 20010904//EN"
 "http://www.w3.org/TR/2001/REC-SVG-20010904/DTD/svg10.dtd">
<svg version="1.0" xmlns="http://www.w3.org/2000/svg"
 width="512.000000pt" height="512.000000pt" viewBox="0 0 512.000000 512.000000"
 preserveAspectRatio="xMidYMid meet">

<g transform="translate(0.000000,512.000000) scale(0.100000,-0.100000)"
fill="#000000" stroke="none">
<path d="M2560 4749 l0 -209 86 0 c48 0 134 -7 193 -16 879 -128 1556 -805
1685 -1685 21 -140 21 -418 0 -558 -118 -805 -699 -1449 -1484 -1646 -130 -33
-290 -55 -394 -55 l-86 0 0 -210 0 -209 88 5 c516 29 956 185 1352 480 135
101 373 339 474 474 257 346 415 743 467 1175 15 127 15 400 0 530 -60 524
-287 1009 -648 1385 -440 459 -991 709 -1640 744 l-93 5 0 -210z"/>
<path d="M2330 3480 l0 -100 195 0 195 0 0 -265 0 -265 -195 0 -195 0 0 -156
0 -157 51 48 c42 39 54 46 77 40 33 -8 52 -31 52 -64 0 -18 -18 -44 -57 -83
l-57 -58 56 0 c59 0 72 -8 83 -53 7 -25 -2 -37 -99 -135 l-106 -108 0 -177 0
-177 -365 0 -365 0 0 -124 0 -123 719 -8 c396 -4 724 -4 730 -1 7 5 11 52 11
132 l0 124 -70 0 -70 0 0 685 0 685 25 0 c40 0 97 -28 138 -68 66 -65 67 -72
67 -642 l0 -506 26 -52 c105 -210 411 -181 474 46 6 23 10 234 10 558 l0 522
36 7 c23 4 51 21 79 49 51 52 65 102 65 236 l0 89 -32 3 -33 3 -3 80 c-2 67
-6 83 -23 98 -30 24 -54 21 -78 -9 -17 -22 -21 -41 -21 -101 l0 -74 -52 3 -53
3 -3 80 c-4 107 -37 143 -91 98 -17 -15 -21 -31 -23 -98 l-3 -80 -32 -3 -33
-3 0 -102 c0 -56 5 -119 11 -140 15 -56 73 -116 126 -130 l43 -11 0 -519 c0
-574 1 -569 -64 -608 -60 -37 -155 -15 -188 43 -10 18 -14 141 -18 553 l-5
530 -29 62 c-50 109 -154 187 -266 200 l-50 6 0 158 0 159 -295 0 -295 0 0
-100z"/>
</g>
</svg>
