<?xml version="1.0" encoding="iso-8859-1"?>
<!-- Generator: Adobe Illustrator 19.0.0, SVG Export Plug-In . SVG Version: 6.00 Build 0)  -->
<svg version="1.1" id="Layer_1" xmlns="http://www.w3.org/2000/svg" xmlns:xlink="http://www.w3.org/1999/xlink" x="0px" y="0px"
	 viewBox="0 0 512 512" style="enable-background:new 0 0 512 512;" xml:space="preserve">
<path style="fill:#174461;" d="M256,256h116.636c0,64.417-52.219,116.636-116.636,116.636V256z"/>
<path style="fill:#4EB9FF;" d="M256,139.364V256H139.364C139.364,191.583,191.583,139.364,256,139.364z"/>
<path style="fill:#FFCE47;" d="M256,256v116.636c-64.417,0-116.636-52.219-116.636-116.636H256z"/>
<path style="fill:#FF4181;" d="M372.636,256H256V139.364C320.417,139.364,372.636,191.583,372.636,256z"/>
<g>
	<path style="fill:#3B8BC0;" d="M256,436.723c-99.651,0-180.723-81.072-180.723-180.723S156.349,75.277,256,75.277
		S436.723,156.349,436.723,256S355.651,436.723,256,436.723z M256,98.444c-86.877,0-157.556,70.679-157.556,157.556
		S169.123,413.556,256,413.556S413.556,342.877,413.556,256S342.877,98.444,256,98.444z"/>
	<path style="fill:#3B8BC0;" d="M256,512c-6.398,0-11.584-5.186-11.584-11.584V11.584C244.416,5.186,249.602,0,256,0
		c6.398,0,11.584,5.186,11.584,11.584v488.833C267.584,506.814,262.398,512,256,512z"/>
	<path style="fill:#3B8BC0;" d="M500.416,267.584H11.584C5.186,267.584,0,262.398,0,256c0-6.398,5.186-11.584,11.584-11.584h488.833
		c6.398,0,11.584,5.186,11.584,11.584C512,262.398,506.814,267.584,500.416,267.584z"/>
</g>
<g>
</g>
<g>
</g>
<g>
</g>
<g>
</g>
<g>
</g>
<g>
</g>
<g>
</g>
<g>
</g>
<g>
</g>
<g>
</g>
<g>
</g>
<g>
</g>
<g>
</g>
<g>
</g>
<g>
</g>
</svg>
